<svg xmlns="http://www.w3.org/2000/svg" viewBox="0 0 252.3 62.71"><defs><style>.cls-1{fill:#020202;}</style></defs><g id="Layer_2" data-name="Layer 2"><g id="Layer_1-2" data-name="Layer 1"><path class="cls-1" d="M1.4.44H7V26.87H1.4Z"/><path class="cls-1" d="M19.47,9.63V26.87H13.84V.44h5.79L31.88,17V.44H37.5V26.87H32.08Z"/><path class="cls-1" d="M50,9.63V26.87H44.33V.44h5.78L62.36,17V.44H68V26.87H62.56Z"/><path class="cls-1" d="M87.33,0c8,0,13.83,5.71,13.83,13.67S95.34,27.35,87.33,27.35,73.54,21.64,73.54,13.67,79.37,0,87.33,0Zm0,5c-4.87,0-8,3.73-8,8.68s3.13,8.68,8,8.68,8-3.76,8-8.68S92.21,5,87.33,5Z"/><path class="cls-1" d="M103.11.44h6.42l7.33,20.33L124.15.44h6.43L120.39,26.87h-7Z"/><path class="cls-1" d="M149.37,22.39H138l-1.66,4.48H130L140.17.44h7.06l10.18,26.43H151Zm-9.79-4.95h8.24L143.7,6.06Z"/><path class="cls-1" d="M165,5.39H157.3V.44h21.08V5.39h-7.69V26.87H165Z"/><path class="cls-1" d="M183.57.44h5.63V26.87h-5.63Z"/><path class="cls-1" d="M208.54,0c8,0,13.84,5.71,13.84,13.67s-5.83,13.68-13.84,13.68-13.79-5.71-13.79-13.68S200.58,0,208.54,0Zm0,5c-4.87,0-8,3.73-8,8.68s3.13,8.68,8,8.68,8.05-3.76,8.05-8.68S213.42,5,208.54,5Z"/><path class="cls-1" d="M233.56,9.63V26.87h-5.63V.44h5.79L246,17V.44h5.63V26.87h-5.43Z"/><path class="cls-1" d="M0,41.59H8.51c3.48,0,5.72,2,5.72,5.28a4.73,4.73,0,0,1-3.64,4.76,5.19,5.19,0,0,1,4,5.09c0,3.45-2.24,5.59-5.93,5.59H0Zm8.29,9.29c2.67,0,4.07-1.68,4.07-3.82a3.73,3.73,0,0,0-4.07-3.85H1.77v7.67Zm.13,9.82c2.73,0,4.35-1.59,4.35-4.1a4,4,0,0,0-4.35-4.1H1.77v8.2Z"/><path class="cls-1" d="M37.3,53.46,29.06,41.59h2.15l7,10.19,7-10.19h2.15L39.1,53.46v8.85H37.3Z"/><path class="cls-1" d="M84.49,41.59h6.62A10.06,10.06,0,0,1,101.58,52,10,10,0,0,1,91.11,62.31H84.49ZM91.11,60.7c5.47,0,8.6-3.89,8.6-8.73s-3.1-8.76-8.6-8.76H86.26V60.7Z"/><path class="cls-1" d="M119,41.59h13.14v1.62H120.79v7.67h11.15V52.5H120.79v8.2h11.37v1.61H119Z"/><path class="cls-1" d="M149.58,58.06a8.44,8.44,0,0,0,6.46,3c4.25,0,5.47-2.36,5.47-4.13,0-2.92-2.77-3.73-5.69-4.51-3.26-.9-6.74-1.83-6.74-5.65,0-3.38,3-5.53,6.8-5.53a8.89,8.89,0,0,1,7,2.92l-1.18,1.31a7.39,7.39,0,0,0-5.93-2.61c-2.76,0-4.85,1.58-4.85,3.82,0,2.45,2.58,3.17,5.41,3.91,3.35,1,7,2,7,6.21,0,2.67-1.77,5.87-7.36,5.87a9.51,9.51,0,0,1-7.58-3.29Z"/><path class="cls-1" d="M180.66,41.59h1.77V62.31h-1.77Z"/><path class="cls-1" d="M210.35,41.25a9.86,9.86,0,0,1,7.8,3.54l-1.34,1a8.44,8.44,0,0,0-6.46-2.89c-4.88,0-8.63,3.69-8.63,9.1s3.75,9.13,8.63,9.13a8.83,8.83,0,0,0,6.09-2.52v-5h-7.83V52h9.6v7.24a10.45,10.45,0,0,1-7.86,3.44A10.33,10.33,0,0,1,199.85,52,10.31,10.31,0,0,1,210.35,41.25Z"/><path class="cls-1" d="M237.52,44.51v17.8h-1.77V41.59h1.8l13,17.55V41.59h1.77V62.31h-1.74Z"/></g></g></svg>